<?xml version="1.0" encoding="utf-8"?>
<!-- Generator: Adobe Illustrator 16.0.0, SVG Export Plug-In . SVG Version: 6.00 Build 0)  -->
<!DOCTYPE svg PUBLIC "-//W3C//DTD SVG 1.1//EN" "http://www.w3.org/Graphics/SVG/1.1/DTD/svg11.dtd">
<svg version="1.1" id="Layer_1" xmlns="http://www.w3.org/2000/svg" xmlns:xlink="http://www.w3.org/1999/xlink" x="0px" y="0px"
	 width="40px" height="40px" viewBox="0 0 40 40" enable-background="new 0 0 40 40" xml:space="preserve">
<path fill="#FFFFFF" d="M29.531,26.532l9.861,9.901c0.833,0.838,0.806,2.174-0.062,2.979C38.924,39.791,38.387,40,37.82,40
	c-0.6,0-1.157-0.229-1.573-0.646l-9.937-9.977c-2.82,1.914-6.12,2.922-9.583,2.922C7.504,32.3,0,25.055,0,16.149
	C0,7.245,7.504,0,16.728,0c9.223,0,16.728,7.245,16.728,16.149C33.456,19.961,32.066,23.622,29.531,26.532z M29.092,16.15
	c0-6.582-5.547-11.937-12.365-11.937C9.91,4.213,4.363,9.568,4.363,16.15c0,6.583,5.546,11.938,12.364,11.938
	C23.545,28.088,29.092,22.732,29.092,16.15z"/>
</svg>
