<?xml version="1.0" encoding="utf-8"?>
<!-- Generator: Adobe Illustrator 16.0.0, SVG Export Plug-In . SVG Version: 6.00 Build 0)  -->
<!DOCTYPE svg PUBLIC "-//W3C//DTD SVG 1.1//EN" "http://www.w3.org/Graphics/SVG/1.1/DTD/svg11.dtd">
<svg version="1.1" xmlns="http://www.w3.org/2000/svg" xmlns:xlink="http://www.w3.org/1999/xlink" x="0px" y="0px" width="40px"
	 height="40px" viewBox="0 0 40 40" enable-background="new 0 0 40 40" xml:space="preserve">
<g id="Layer_1" display="none">
	<path display="inline" fill="#FFFFFF" d="M29.531,26.532l9.861,9.901c0.833,0.838,0.806,2.174-0.062,2.979
		C38.924,39.791,38.387,40,37.82,40c-0.6,0-1.157-0.229-1.573-0.646l-9.937-9.977c-2.82,1.914-6.12,2.922-9.583,2.922
		C7.504,32.3,0,25.055,0,16.149C0,7.245,7.504,0,16.728,0c9.223,0,16.728,7.245,16.728,16.149
		C33.456,19.961,32.066,23.622,29.531,26.532z M29.092,16.15c0-6.582-5.547-11.937-12.365-11.937
		C9.91,4.213,4.363,9.568,4.363,16.15c0,6.583,5.546,11.938,12.364,11.938C23.545,28.088,29.092,22.732,29.092,16.15z"/>
</g>
<g id="Layer_2" display="none">
	<path display="inline" fill="#FFFFFF" d="M37.755,35.452c1.239,0,2.245,1.02,2.245,2.274C40,38.982,38.994,40,37.755,40H25.065
		c-1.237,0-2.244-1.018-2.244-2.273c0-1.255,1.007-2.274,2.244-2.274H37.755z M28.955,1.553l3.277,2.604
		c1.345,1.052,2.24,2.437,2.548,3.895c0.354,1.603-0.024,3.177-1.085,4.538L14.169,37.84c-0.896,1.146-2.217,1.792-3.631,1.816
		l-7.782,0.095c-0.424,0-0.778-0.286-0.872-0.692l-1.769-7.668c-0.307-1.41,0-2.867,0.896-3.99L14.854,9.484
		c0.236-0.287,0.66-0.332,0.943-0.12L21.621,14c0.379,0.311,0.896,0.477,1.438,0.406c1.156-0.143,1.934-1.194,1.816-2.317
		c-0.07-0.573-0.354-1.051-0.731-1.409c-0.117-0.096-5.66-4.54-5.66-4.54c-0.354-0.287-0.424-0.812-0.141-1.167l2.193-2.846
		C22.565-0.477,26.103-0.716,28.955,1.553z"/>
</g>
<g id="Layer_3">
	<path fill="#FFFFFF" d="M11.84,22.939c2.82,0,5.08,2.282,5.08,5.122v6.818c0,2.82-2.26,5.12-5.08,5.12H5.08C2.28,40,0,37.7,0,34.88
		v-6.818c0-2.84,2.28-5.122,5.08-5.122H11.84z M34.92,22.939c2.8,0,5.08,2.282,5.08,5.122v6.818C40,37.7,37.72,40,34.92,40h-6.76
		c-2.82,0-5.08-2.3-5.08-5.12v-6.818c0-2.84,2.26-5.122,5.08-5.122H34.92z M11.84,0c2.82,0,5.08,2.3,5.08,5.122v6.818
		c0,2.84-2.26,5.121-5.08,5.121H5.08c-2.8,0-5.08-2.28-5.08-5.121V5.122C0,2.3,2.28,0,5.08,0H11.84z M34.92,0
		C37.72,0,40,2.3,40,5.122v6.818c0,2.84-2.28,5.121-5.08,5.121h-6.76c-2.82,0-5.08-2.28-5.08-5.121V5.122C23.08,2.3,25.34,0,28.16,0
		H34.92z"/>
</g>
</svg>
